<svg xmlns="http://www.w3.org/2000/svg" viewBox="66 0 914 539" preserveAspectRatio="xMidYMid meet">
  <defs>
    <linearGradient id="bgrad" x1="66" y1="269" x2="979" y2="269" gradientUnits="userSpaceOnUse">
      <stop offset="0" stop-color="#ed3a90"/>
      <stop offset="1" stop-color="#f37a22"/>
    </linearGradient>
    <clipPath id="logo-shape">
      <path d="M 342.417969 0.222656 L 436.609375 0.222656 C 448.441406 0.222656 458.09375 9.886719 458.09375 21.699219 L 458.09375 28.910156 C 458.09375 40.726562 448.429688 50.386719 436.609375 50.386719 L 342.417969 50.386719 C 330.597656 50.386719 320.933594 40.738281 320.933594 28.910156 L 320.933594 21.699219 C 320.933594 9.871094 330.582031 0.222656 342.417969 0.222656 Z M 88.039062 198.933594 L 257.019531 198.933594 C 268.855469 198.933594 278.503906 208.59375 278.503906 220.410156 L 278.503906 227.628906 C 278.503906 239.441406 268.839844 249.101562 257.019531 249.101562 L 88.039062 249.101562 C 76.21875 249.101562 66.558594 239.453125 66.558594 227.628906 L 66.558594 220.410156 C 66.558594 208.578125 76.210938 198.933594 88.039062 198.933594 Z M 399.09375 538.449219 L 765.234375 539.035156 C 830.980469 539.035156 878 523.273438 906.296875 491.757812 C 934.589844 460.242188 948.734375 423.472656 948.734375 381.71875 C 948.734375 324.480469 919.089844 285.417969 859.8125 264.675781 C 894.707031 256.730469 922.59375 241.238281 943.476562 218.207031 C 964.226562 195.039062 974.601562 167.023438 974.601562 134.164062 C 974.601562 103.996094 965.84375 77.863281 948.328125 55.371094 C 930.8125 33.015625 909.257812 18.195312 883.523438 10.921875 C 857.65625 3.652344 824.511719 0.0117188 784.09375 0.0117188 L 494.941406 0.574219 C 483.148438 0.574219 473.527344 10.191406 473.527344 21.980469 L 473.527344 29.171875 C 473.527344 40.960938 483.148438 50.578125 494.941406 50.578125 L 512.992188 50.578125 L 549.75 50.589844 C 561.539062 50.589844 571.160156 60.207031 571.160156 71.996094 L 571.160156 79.1875 C 571.160156 88.402344 565.285156 96.289062 557.085938 99.292969 L 206.003906 99.292969 C 194.210938 99.292969 184.589844 108.910156 184.589844 120.699219 L 184.589844 127.890625 C 184.589844 139.679688 194.222656 149.296875 206.003906 149.296875 L 595.085938 149.296875 C 604.03125 151.867188 610.605469 160.128906 610.605469 169.875 L 610.605469 177.066406 C 610.605469 188.855469 600.984375 198.472656 589.191406 198.472656 L 582.480469 198.351562 L 325.535156 198.964844 C 313.742188 198.992188 304.121094 208.585938 304.121094 220.371094 L 304.121094 227.566406 C 304.121094 239.351562 313.75 249.003906 325.535156 248.972656 L 486.417969 248.507812 C 498.785156 253.265625 499.613281 260.945312 499.613281 267.628906 L 499.613281 273.953125 C 499.613281 288.25 489.332031 293.851562 484.734375 293.851562 L 248.132812 293.851562 C 232.402344 293.851562 219.5625 303.46875 219.5625 315.257812 L 219.5625 322.453125 C 219.5625 334.238281 232.402344 343.855469 248.132812 343.855469 L 381.726562 343.855469 L 536.03125 341.632812 C 547.816406 341.464844 557.441406 351.25 557.441406 363.039062 L 557.441406 370.230469 C 557.441406 382.019531 547.820312 391.636719 536.03125 391.636719 L 473.320312 392.226562 L 324.347656 392.226562 C 312.558594 392.226562 302.941406 401.84375 302.941406 413.632812 L 302.941406 420.824219 C 302.941406 432.613281 312.5625 442.230469 324.347656 442.230469 L 483.863281 442.230469 C 494.566406 443.296875 502.941406 451.589844 502.941406 461.597656 L 502.941406 468.148438 C 502.941406 478.882812 493.308594 487.128906 481.527344 487.632812 L 399.09375 488.460938 C 387.300781 488.460938 377.683594 498.078125 377.683594 509.867188 L 377.683594 517.058594 C 377.683594 528.832031 387.308594 538.449219 399.09375 538.449219 Z M 647.617188 420.242188 L 664.457031 319.230469 L 732.628906 319.230469 C 753.242188 319.230469 768.871094 323.941406 779.378906 333.238281 C 789.886719 342.53125 795.144531 354.917969 795.144531 370.140625 C 795.144531 382.535156 790.429688 393.976562 780.859375 404.488281 C 771.292969 414.996094 753.917969 420.246094 728.722656 420.246094 Z M 683.324219 206.089844 L 698.675781 113.960938 L 760.25 113.960938 C 799.183594 113.960938 818.589844 128.375 818.589844 157.0625 C 818.589844 189.789062 794.066406 206.089844 744.890625 206.089844 Z M 169.941406 394.160156 L 264.136719 394.160156 C 275.964844 394.160156 285.617188 403.820312 285.617188 415.632812 L 285.617188 422.851562 C 285.617188 434.667969 275.953125 444.328125 264.136719 444.328125 L 169.941406 444.328125 C 158.121094 444.328125 148.460938 434.679688 148.460938 422.851562 L 148.460938 415.632812 C 148.460938 403.808594 158.113281 394.160156 169.941406 394.160156 Z"/>
    </clipPath>
  </defs>
  <rect x="66" y="0" width="914" height="539" fill="url(#bgrad)" clip-path="url(#logo-shape)"/>
</svg>
